<?xml version="1.0" encoding="UTF-8"?>
<svg width="29px" height="24px" viewBox="0 0 29 24" version="1.1" xmlns="http://www.w3.org/2000/svg" xmlns:xlink="http://www.w3.org/1999/xlink">
    <title>noun-sound-1939979</title>
    <g id="Page-1" stroke="none" stroke-width="1" fill="none" fill-rule="evenodd">
        <g id="Small" transform="translate(-589.000000, -750.000000)" fill="#FFFFFF" fill-rule="nonzero">
            <g id="noun-sound-1939979" transform="translate(589.000000, 750.000000)">
                <path d="M21.0441242,6.66010437 C20.4402749,6.17705006 19.5345009,6.23738467 19.0212793,6.87141138 C18.5080577,7.50543809 18.6287269,8.41120203 19.2628593,8.92454945 C20.0780056,9.5887334 20.591353,10.6153024 20.591353,11.7324489 C20.591353,12.9401475 20.0176709,13.9968839 19.1118969,14.6611181 C18.5382149,15.0838378 18.447713,15.9291514 18.9005899,16.4726662 L19.0213799,16.5934562 C19.5044342,17.1671382 20.4102082,17.2879332 20.9838903,16.8350361 C22.4935136,15.6575048 23.4596222,13.785597 23.4596222,11.7325092 C23.4595239,9.67937118 22.5235803,7.86787349 21.0441242,6.66017482 L21.0441242,6.66010437 Z" id="Path"></path>
                <path d="M24.3351031,2.61431381 C23.7312538,2.1312595 22.8556471,2.25205453 22.3424255,2.82562082 C21.8593712,3.42947016 21.9197058,4.33524416 22.5235601,4.81829847 C24.5162378,6.47888415 25.814539,8.95466643 25.814539,11.7323734 C25.814539,14.5100803 24.5162126,17.0160551 22.5235601,18.6464483 C21.9197108,19.1295026 21.8593762,20.0352766 22.3424255,20.6391259 C22.8254747,21.2429753 23.7312538,21.3637703 24.3351031,20.8807059 C26.9920402,18.7370659 28.7130108,15.4460619 28.7130108,11.7625809 C28.6828385,8.04890752 26.9920905,4.75792864 24.3351031,2.61426349 L24.3351031,2.61431381 Z" id="Path"></path>
                <path d="M12.620426,0.41026373 L5.28365654,6.05625503 L1.69075298,6.05625503 C0.754811671,6.05625503 0,6.8110667 0,7.74700802 L0,15.7178193 C0,16.6537606 0.754811671,17.4085722 1.69075298,17.4085722 L5.28365654,17.4086705 L12.6506185,23.0546618 C13.9489448,24.0510636 15.790635,23.1452795 15.790635,21.4847039 L15.790635,1.95017782 C15.790635,0.350027394 13.9186517,-0.585989399 12.620426,0.410387167 L12.620426,0.41026373 Z" id="Path"></path>
            </g>
        </g>
    </g>
</svg>
