<svg aria-hidden="true" style="position: absolute; width: 0; height: 0; overflow: hidden;" version="1.1" xmlns="http://www.w3.org/2000/svg" xmlns:xlink="http://www.w3.org/1999/xlink">
<defs>
<symbol id="icon-arrow-up-thin" viewBox="0 0 32 32">
<path d="M31.574 22.244l-14.546-14.545c-0.273-0.273-0.643-0.426-1.028-0.426s-0.756 0.153-1.029 0.426l-14.545 14.545c-0.568 0.568-0.568 1.489 0 2.057s1.489 0.568 2.057 0l13.517-13.517 13.517 13.517c0.284 0.284 0.656 0.426 1.029 0.426s0.745-0.142 1.029-0.426c0.568-0.568 0.568-1.489-0-2.057z"></path>
</symbol>
<symbol id="icon-arrow-up-thick" viewBox="0 0 32 32">
<path d="M18.221 7.206l9.585 9.585c0.879 0.879 0.879 2.317 0 3.195l-0.8 0.801c-0.877 0.878-2.316 0.878-3.194 0l-7.315-7.315-7.315 7.315c-0.878 0.878-2.317 0.878-3.194 0l-0.8-0.801c-0.879-0.878-0.879-2.316 0-3.195l9.587-9.585c0.471-0.472 1.103-0.682 1.723-0.647 0.617-0.035 1.25 0.175 1.723 0.647z"></path>
</symbol>
</defs>
</svg>
